<svg width="901" height="901" viewBox="0 0 901 901" fill="none" xmlns="http://www.w3.org/2000/svg">
<path d="M900.5 450.5C900.5 699.028 699.028 900.5 450.5 900.5C201.972 900.5 0.5 699.028 0.5 450.5C0.5 201.972 201.972 0.5 450.5 0.5C699.028 0.5 900.5 201.972 900.5 450.5Z" fill="#0F2A3D"/>
<path d="M350.945 273.55C361.372 259.622 373.695 252.429 389.81 249.177C402.133 246.69 419.67 244.203 434.362 263.602C449.055 283.001 531.525 568.516 535.79 595.376C540.056 622.236 533.421 628.703 526.311 635.169C518.448 642.321 493.608 655.066 476.545 653.573C459.482 652.081 450.951 645.117 446.685 632.682C442.42 620.247 349.523 338.214 345.257 318.815C340.992 299.415 340.448 287.57 350.945 273.55Z" fill="#FFC806"/>
<path d="M380.805 272.058C391.895 266.683 399.289 265.591 413.034 274.545C426.779 283.498 514.936 573.987 520.624 596.371C526.311 618.754 509.249 630.614 500.243 633.179C491.238 635.745 467.066 639.148 460.904 623.231C454.743 607.314 362.794 308.369 362.794 299.415C362.794 290.462 366.449 279.015 380.805 272.058Z" fill="#0F2A3D"/>
<path d="M392.582 289.015C383.916 291.196 379.298 298.418 378.084 302.919C376.87 307.42 469.642 591.516 474.372 599.079C479.102 606.643 490.141 605.24 498.798 601.81C507.456 598.38 509.302 587.404 506.978 578.86C504.653 570.316 416.037 293.241 411.744 290.695C407.451 288.149 402.19 286.597 392.582 289.015Z" fill="#FFC806"/>
<path d="M486.786 577.021L407.436 320.273C406.613 317.608 403.156 316.953 401.372 319.126C400.613 320.049 400.367 321.289 400.718 322.423L480.2 579.129C480.68 580.68 482.181 581.673 483.8 581.511C485.984 581.292 487.433 579.114 486.786 577.021Z" fill="#0F2A3D"/>
<path d="M529.785 490.37C547.252 467.83 589.978 457.044 589.978 451.075C589.978 445.106 530.733 410.784 520.78 394.37C510.827 377.955 513.67 349.105 520.78 336.172C527.889 323.24 534.999 317.271 549.692 307.322C564.384 297.374 581.447 300.359 596.14 305.333C610.833 310.307 742.594 384.919 752.548 394.37C762.501 403.82 769.694 419.103 772.454 437.644C775.907 460.835 770.558 482.412 760.131 496.339C749.704 510.267 597.562 594.689 589.978 597.811C582.395 600.934 567.161 602.459 553.957 597.811C538.819 592.482 531.509 587.571 520.78 570.454C510.091 553.401 508.349 538.355 513.67 518.723C517.031 506.322 522.034 500.372 529.785 490.37Z" fill="#FFC806"/>
<path d="M549.692 402.836C569.598 419.251 634.531 441.137 627.422 452.577C620.312 464.017 556.801 488.888 547.322 498.339C541.062 504.58 538.316 509.282 535.947 518.236C533.577 527.189 532.35 544.475 540.212 557.531C550.353 574.371 573.39 581.904 584.765 577.925C596.14 573.946 734.063 496.349 743.068 488.391C752.074 480.432 753.705 467.257 753.97 452.577C754.251 436.97 753.97 425.219 743.068 414.276C732.167 403.333 603.431 329.114 584.765 325.239C566.099 321.365 552.316 329.572 542.582 345.633C531.062 364.643 529.785 386.421 549.692 402.836Z" fill="#0F2A3D"/>
<path d="M564.858 540.619C572.116 544.048 579.551 544.101 585.239 540.619C590.926 537.137 680.158 494.024 735.011 454.069C743.383 447.971 744.49 428.204 730.271 418.753C716.053 409.302 601.354 344.639 584.765 338.172C568.176 331.706 558.223 339.167 554.905 344.639C551.587 350.11 551.587 366.027 562.015 372.494C572.442 378.96 675.292 434.173 674.818 439.644C674.344 445.116 554.905 501.821 552.061 507.79C549.218 513.759 549.46 519.834 552.061 526.692C554.724 533.711 558.293 537.517 564.858 540.619Z" fill="#FFC806"/>
<path d="M713.683 447.603C717.001 439.645 713.683 432.681 707.995 426.214C702.308 419.748 584.765 354.587 576.234 354.09C567.702 353.592 571.968 360.556 576.234 363.54C580.499 366.525 683.823 418.753 694.25 426.214C704.677 433.676 701.36 440.639 694.25 447.603C687.141 454.567 576.234 510.277 571.494 513.262C566.754 516.246 565.333 523.707 576.234 522.215C576.234 522.215 710.365 455.562 713.683 447.603Z" fill="#0F2A3D"/>
<path d="M366 342.731C416.5 427.231 299.5 450.731 299.5 460.731C299.5 470.731 409 491.231 371 574.231C348.566 623.231 299.5 607.231 299.5 607.231C299.5 607.231 138 539.231 108.5 484.231C78.9999 429.231 130.5 405.231 217 356.231C303.5 307.231 336.716 293.731 366 342.731Z" fill="#FFC806"/>
<path d="M339.739 405.091C329.76 429.869 257.64 449.691 257.64 460.097C257.64 470.504 314.792 496.272 329.76 509.157C342.914 517.581 347.909 543.831 339.739 567.631C333.275 586.462 319.328 595.774 298.916 586.462C257.64 567.631 215.021 537.468 157.852 501.723C144.985 493.678 128.87 484.95 127.008 460.097C127.008 446.65 133.358 434.329 150.594 422.435C167.831 410.542 294.339 337.219 306.132 337.219C317.018 332.759 330.26 325.969 336.466 345.675C342.671 365.381 346.289 383.725 339.739 405.091Z" fill="#0F2A3D"/>
<path d="M300.444 355.126C311.346 352.141 314.663 355.126 318.929 359.602C323.195 364.079 326.038 371.54 314.663 380.494C303.288 389.447 205.866 441.913 205.652 449.634C205.437 457.356 308.028 505.344 320.351 514.795C332.674 524.246 333.344 534.733 329.83 543.148C325.691 553.06 316.559 555.086 304.71 551.106C292.861 547.127 155.412 469.328 146.88 462.217C138.349 455.106 142.141 448.142 146.88 441.326C151.62 434.509 289.543 358.11 300.444 355.126Z" fill="#FFC806"/>
<path d="M163.943 438.691C176.74 431.23 302.34 356.618 308.502 365.571C314.663 374.525 190.011 437.199 184.797 440.681C179.584 444.163 180.058 452.121 189.063 457.593C198.068 463.064 314.663 521.262 308.502 531.707C302.34 542.153 163.943 457.593 158.729 453.613C153.516 449.634 151.146 446.152 163.943 438.691Z" fill="#0F2A3D"/>
<path d="M900.5 450.5C900.5 699.028 699.028 900.5 450.5 900.5C201.972 900.5 0.5 699.028 0.5 450.5C0.5 201.972 201.972 0.5 450.5 0.5C699.028 0.5 900.5 201.972 900.5 450.5Z" stroke="#0F2A3D"/>
<path d="M350.945 273.55C361.372 259.622 373.695 252.429 389.81 249.177C402.133 246.69 419.67 244.203 434.362 263.602C449.055 283.001 531.525 568.516 535.79 595.376C540.056 622.236 533.421 628.703 526.311 635.169C518.448 642.321 493.608 655.066 476.545 653.573C459.482 652.081 450.951 645.117 446.685 632.682C442.42 620.247 349.523 338.214 345.257 318.815C340.992 299.415 340.448 287.57 350.945 273.55Z" stroke="#0F2A3D"/>
<path d="M380.805 272.058C391.895 266.683 399.289 265.591 413.034 274.545C426.779 283.498 514.936 573.987 520.624 596.371C526.311 618.754 509.249 630.614 500.243 633.179C491.238 635.745 467.066 639.148 460.904 623.231C454.743 607.314 362.794 308.369 362.794 299.415C362.794 290.462 366.449 279.015 380.805 272.058Z" stroke="#0F2A3D"/>
<path d="M392.582 289.015C383.916 291.196 379.298 298.418 378.084 302.919C376.87 307.42 469.642 591.516 474.372 599.079C479.102 606.643 490.141 605.24 498.798 601.81C507.456 598.38 509.302 587.404 506.978 578.86C504.653 570.316 416.037 293.241 411.744 290.695C407.451 288.149 402.19 286.597 392.582 289.015Z" stroke="#0F2A3D"/>
<path d="M486.786 577.021L407.436 320.273C406.613 317.608 403.156 316.953 401.372 319.126C400.613 320.049 400.367 321.289 400.718 322.423L480.2 579.129C480.68 580.68 482.181 581.673 483.8 581.511C485.984 581.292 487.433 579.114 486.786 577.021Z" stroke="#0F2A3D"/>
<path d="M529.785 490.37C547.252 467.83 589.978 457.044 589.978 451.075C589.978 445.106 530.733 410.784 520.78 394.37C510.827 377.955 513.67 349.105 520.78 336.172C527.889 323.24 534.999 317.271 549.692 307.322C564.384 297.374 581.447 300.359 596.14 305.333C610.833 310.307 742.594 384.919 752.548 394.37C762.501 403.82 769.694 419.103 772.454 437.644C775.907 460.835 770.558 482.412 760.131 496.339C749.704 510.267 597.562 594.689 589.978 597.811C582.395 600.934 567.161 602.459 553.957 597.811C538.819 592.482 531.509 587.571 520.78 570.454C510.091 553.401 508.349 538.355 513.67 518.723C517.031 506.322 522.034 500.372 529.785 490.37Z" stroke="#0F2A3D"/>
<path d="M549.692 402.836C569.598 419.251 634.531 441.137 627.422 452.577C620.312 464.017 556.801 488.888 547.322 498.339C541.062 504.58 538.316 509.282 535.947 518.236C533.577 527.189 532.35 544.475 540.212 557.531C550.353 574.371 573.39 581.904 584.765 577.925C596.14 573.946 734.063 496.349 743.068 488.391C752.074 480.432 753.705 467.257 753.97 452.577C754.251 436.97 753.97 425.219 743.068 414.276C732.167 403.333 603.431 329.114 584.765 325.239C566.099 321.365 552.316 329.572 542.582 345.633C531.062 364.643 529.785 386.421 549.692 402.836Z" stroke="#0F2A3D"/>
<path d="M564.858 540.619C572.116 544.048 579.551 544.101 585.239 540.619C590.926 537.137 680.158 494.024 735.011 454.069C743.383 447.971 744.49 428.204 730.271 418.753C716.053 409.302 601.354 344.639 584.765 338.172C568.176 331.706 558.223 339.167 554.905 344.639C551.587 350.11 551.587 366.027 562.015 372.494C572.442 378.96 675.292 434.173 674.818 439.644C674.344 445.116 554.905 501.821 552.061 507.79C549.218 513.759 549.46 519.834 552.061 526.692C554.724 533.711 558.293 537.517 564.858 540.619Z" stroke="#0F2A3D"/>
<path d="M713.683 447.603C717.001 439.645 713.683 432.681 707.995 426.214C702.308 419.748 584.765 354.587 576.234 354.09C567.702 353.592 571.968 360.556 576.234 363.54C580.499 366.525 683.823 418.753 694.25 426.214C704.677 433.676 701.36 440.639 694.25 447.603C687.141 454.567 576.234 510.277 571.494 513.262C566.754 516.246 565.333 523.707 576.234 522.215C576.234 522.215 710.365 455.562 713.683 447.603Z" stroke="#0F2A3D"/>
<path d="M366 342.731C416.5 427.231 299.5 450.731 299.5 460.731C299.5 470.731 409 491.231 371 574.231C348.566 623.231 299.5 607.231 299.5 607.231C299.5 607.231 138 539.231 108.5 484.231C78.9999 429.231 130.5 405.231 217 356.231C303.5 307.231 336.716 293.731 366 342.731Z" stroke="#0F2A3D"/>
<path d="M339.739 405.091C329.76 429.869 257.64 449.691 257.64 460.097C257.64 470.504 314.792 496.272 329.76 509.157C342.914 517.581 347.909 543.831 339.739 567.631C333.275 586.462 319.328 595.774 298.916 586.462C257.64 567.631 215.021 537.468 157.852 501.723C144.985 493.678 128.87 484.95 127.008 460.097C127.008 446.65 133.358 434.329 150.594 422.435C167.831 410.542 294.339 337.219 306.132 337.219C317.018 332.759 330.26 325.969 336.466 345.675C342.671 365.381 346.289 383.725 339.739 405.091Z" stroke="#0F2A3D"/>
<path d="M300.444 355.126C311.346 352.141 314.663 355.126 318.929 359.602C323.195 364.079 326.038 371.54 314.663 380.494C303.288 389.447 205.866 441.913 205.652 449.634C205.437 457.356 308.028 505.344 320.351 514.795C332.674 524.246 333.344 534.733 329.83 543.148C325.691 553.06 316.559 555.086 304.71 551.106C292.861 547.127 155.412 469.328 146.88 462.217C138.349 455.106 142.141 448.142 146.88 441.326C151.62 434.509 289.543 358.11 300.444 355.126Z" stroke="#0F2A3D"/>
<path d="M163.943 438.691C176.74 431.23 302.34 356.618 308.502 365.571C314.663 374.525 190.011 437.199 184.797 440.681C179.584 444.163 180.058 452.121 189.063 457.593C198.068 463.064 314.663 521.262 308.502 531.707C302.34 542.153 163.943 457.593 158.729 453.613C153.516 449.634 151.146 446.152 163.943 438.691Z" stroke="#0F2A3D"/>
</svg>
