<svg width="2476" height="407" viewBox="0 0 2476 407" fill="none" xmlns="http://www.w3.org/2000/svg">
<path d="M250.805 26.05C261.232 12.1224 273.555 4.92912 289.67 1.67678C301.993 -0.81031 319.529 -3.2973 334.222 16.1018C348.915 35.5008 431.385 321.016 435.65 347.876C439.916 374.736 433.28 381.203 426.171 387.669C418.308 394.821 393.468 407.566 376.405 406.073C359.342 404.581 350.811 397.617 346.545 385.182C342.28 372.747 249.383 90.7136 245.117 71.3146C240.851 51.9155 240.308 40.07 250.805 26.05Z" fill="#FFC806"/>
<path d="M280.664 24.5577C291.755 19.1829 299.149 18.0914 312.894 27.0447C326.639 35.9981 414.796 326.487 420.484 348.871C426.171 371.254 409.109 383.114 400.103 385.679C391.098 388.245 366.926 391.648 360.764 375.731C354.602 359.814 262.654 60.8689 262.654 51.9154C262.654 42.9619 266.309 31.5145 280.664 24.5577Z" fill="#0F2A3D"/>
<path d="M292.442 41.5152C283.776 43.6964 279.158 50.9183 277.944 55.419C276.73 59.9197 369.502 344.016 374.232 351.579C378.961 359.143 390.001 357.74 398.658 354.31C407.316 350.88 409.162 339.904 406.837 331.36C404.513 322.816 315.897 45.741 311.603 43.195C307.31 40.649 302.05 39.0967 292.442 41.5152Z" fill="#FFC806"/>
<path d="M386.646 329.521L307.296 72.7731C306.472 70.1076 303.015 69.4534 301.231 71.6255C300.473 72.5492 300.227 73.7893 300.578 74.9227L380.059 331.629C380.54 333.18 382.04 334.173 383.66 334.011C385.844 333.792 387.293 331.614 386.646 329.521Z" fill="#0F2A3D"/>
<path d="M429.645 242.87C447.112 220.33 489.838 209.544 489.838 203.575C489.838 197.606 430.593 163.284 420.64 146.87C410.686 130.455 413.53 101.605 420.64 88.6723C427.749 75.7396 434.859 69.7706 449.551 59.8223C464.244 49.8741 481.307 52.8586 496 57.8327C510.693 62.8068 642.454 137.419 652.407 146.87C662.361 156.32 669.554 171.603 672.314 190.144C675.767 213.335 670.418 234.912 659.991 248.839C649.564 262.767 497.422 347.189 489.838 350.311C482.255 353.434 467.02 354.959 453.817 350.311C438.678 344.982 431.369 340.071 420.64 322.954C409.951 305.901 408.209 290.855 413.53 271.223C416.891 258.822 421.894 252.872 429.645 242.87Z" fill="#FFC806"/>
<path d="M449.551 155.336C469.458 171.751 534.391 193.637 527.281 205.077C520.172 216.517 456.661 241.388 447.182 250.839C440.922 257.08 438.176 261.782 435.806 270.736C433.437 279.689 432.209 296.975 440.072 310.031C450.213 326.871 473.25 334.404 484.625 330.425C496 326.446 633.923 248.849 642.928 240.891C651.934 232.932 653.565 219.757 653.829 205.077C654.111 189.469 653.829 177.719 642.928 166.776C632.027 155.833 503.29 81.6139 484.625 77.7394C465.959 73.865 452.175 82.072 442.442 98.1334C430.922 117.143 429.645 138.921 449.551 155.336Z" fill="#0F2A3D"/>
<path d="M464.718 293.119C471.975 296.548 479.411 296.601 485.099 293.119C490.786 289.637 580.018 246.524 634.871 206.569C643.243 200.471 644.35 180.704 630.131 171.253C615.912 161.802 501.213 97.1386 484.625 90.6723C468.036 84.2059 458.083 91.6669 454.765 97.1386C451.447 102.61 451.447 118.527 461.874 124.994C472.302 131.46 575.152 186.673 574.678 192.144C574.204 197.616 454.765 254.321 451.921 260.29C449.077 266.259 449.319 272.333 451.921 279.191C454.584 286.211 458.153 290.017 464.718 293.119Z" fill="#FFC806"/>
<path d="M613.543 200.103C616.861 192.145 613.543 185.181 607.855 178.714C602.167 172.248 484.625 107.087 476.093 106.59C467.562 106.092 471.828 113.056 476.093 116.04C480.359 119.025 583.683 171.253 594.11 178.714C604.537 186.176 601.22 193.139 594.11 200.103C587.001 207.067 476.093 262.777 471.354 265.762C466.614 268.746 465.192 276.207 476.093 274.715C476.093 274.715 610.225 208.062 613.543 200.103Z" fill="#0F2A3D"/>
<path d="M265.86 95.2311C316.36 179.731 199.36 203.231 199.36 213.231C199.36 223.231 308.86 243.731 270.86 326.731C248.426 375.731 199.36 359.731 199.36 359.731C199.36 359.731 37.8598 291.731 8.35974 236.731C-21.1403 181.731 30.3596 157.731 116.86 108.731C203.36 59.7309 236.576 46.2309 265.86 95.2311Z" fill="#FFC806"/>
<path d="M239.599 157.591C229.62 182.369 157.5 202.191 157.5 212.597C157.5 223.004 214.652 248.772 229.62 261.657C242.774 270.081 247.769 296.331 239.599 320.131C233.134 338.962 219.187 348.274 198.776 338.962C157.5 320.131 114.88 289.968 57.7116 254.223C44.8444 246.178 28.7296 237.45 26.868 212.597C26.868 199.15 33.2181 186.829 50.4543 174.935C67.6904 163.042 194.199 89.7188 205.992 89.7188C216.878 85.2589 230.12 78.4686 236.325 98.1749C242.531 117.881 246.149 136.225 239.599 157.591Z" fill="#0F2A3D"/>
<path d="M200.304 107.626C211.205 104.641 214.523 107.626 218.789 112.102C223.054 116.579 225.898 124.04 214.523 132.994C203.148 141.947 105.726 194.413 105.512 202.134C105.297 209.856 207.888 257.844 220.211 267.295C232.534 276.746 233.204 287.233 229.69 295.648C225.551 305.56 216.419 307.586 204.57 303.606C192.721 299.627 55.2715 221.828 46.7402 214.717C38.2089 207.606 42.0006 200.642 46.7402 193.826C51.4798 187.009 189.403 110.61 200.304 107.626Z" fill="#FFC806"/>
<path d="M63.8029 191.191C76.5999 183.73 202.2 109.118 208.361 118.071C214.523 127.025 89.8708 189.699 84.6572 193.181C79.4437 196.663 79.9176 204.621 88.9229 210.093C97.9282 215.564 214.523 273.761 208.361 284.207C202.2 294.653 63.8029 210.093 58.5893 206.113C53.3757 202.134 51.0059 198.652 63.8029 191.191Z" fill="#0F2A3D"/>
<path d="M856.76 236C847.56 215.8 839.36 196.3 832.16 177.5C825.16 158.5 819.16 141.6 814.16 126.8C809.56 151.6 805.66 176.6 802.46 201.8C799.46 227 795.56 251.1 790.76 274.1C789.56 279.3 787.36 282.8 784.16 284.6C780.96 286.2 778.26 287 776.06 287C772.46 287 769.56 285.9 767.36 283.7C765.36 281.5 764.36 278.7 764.36 275.3C764.36 270.7 764.86 263.7 765.86 254.3C767.06 244.7 768.46 233.9 770.06 221.9C771.86 209.9 773.86 197.3 776.06 184.1C778.26 170.9 780.46 158.2 782.66 146C785.06 133.6 787.26 122.4 789.26 112.4C791.46 102.4 793.36 94.7 794.96 89.3C797.56 80.1 802.86 75.5 810.86 75.5C815.66 75.5 819.76 77.9 823.16 82.7C826.56 87.3 830.16 94.5 833.96 104.3C837.96 113.9 842.66 126.1 848.06 140.9C853.66 155.7 860.86 173.1 869.66 193.1C878.26 173.1 885.16 155.8 890.36 141.2C895.76 126.4 900.26 114.2 903.86 104.6C907.66 94.8 911.26 87.6 914.66 83C918.06 78.2 922.26 75.8 927.26 75.8C931.86 75.8 935.36 77 937.76 79.4C940.16 81.6 941.96 85 943.16 89.6C944.56 95.2 946.26 103 948.26 113C950.26 122.8 952.36 133.8 954.56 146C956.96 158 959.26 170.6 961.46 183.8C963.66 197 965.66 209.6 967.46 221.6C969.26 233.6 970.66 244.5 971.66 254.3C972.86 263.9 973.46 271.3 973.46 276.5C973.46 279.7 972.36 282.3 970.16 284.3C967.96 286.1 965.16 287 961.76 287C959.56 287 956.86 286.2 953.66 284.6C950.46 282.8 948.26 279.3 947.06 274.1C944.66 262.7 942.46 250.9 940.46 238.7C938.66 226.5 936.86 214.2 935.06 201.8C933.46 189.2 931.86 176.7 930.26 164.3C928.66 151.7 926.96 139.2 925.16 126.8C922.56 134.8 919.56 143.6 916.16 153.2C912.76 162.8 909.16 172.5 905.36 182.3C901.56 191.9 897.66 201.4 893.66 210.8C889.66 220.2 885.76 228.7 881.96 236.3C880.56 238.9 878.66 240.9 876.26 242.3C874.06 243.5 871.76 244.1 869.36 244.1C866.76 244.1 864.26 243.5 861.86 242.3C859.66 240.9 857.96 238.8 856.76 236Z" fill="#FAFAFA"/>
<path d="M999.951 268.4C999.551 261 999.151 252.6 998.751 243.2C998.551 233.6 998.451 223.1 998.451 211.7C998.451 197.5 998.551 185.4 998.751 175.4C998.951 165.2 999.451 156.9 1000.25 150.5C1001.25 143.9 1002.75 139.1 1004.75 136.1C1006.75 132.9 1009.55 131.3 1013.15 131.3C1016.55 131.3 1019.55 132.5 1022.15 134.9C1024.75 137.3 1026.25 142.5 1026.65 150.5C1027.85 171.5 1028.45 191.8 1028.45 211.4C1028.45 221.4 1028.25 230.8 1027.85 239.6C1027.45 248.2 1027.05 257.7 1026.65 268.1C1026.45 272.9 1025.95 276.6 1025.15 279.2C1024.55 281.8 1023.65 283.8 1022.45 285.2C1021.25 286.6 1019.85 287.4 1018.25 287.6C1016.85 288 1015.15 288.2 1013.15 288.2C1009.55 288.2 1006.55 287 1004.15 284.6C1001.75 282 1000.35 276.6 999.951 268.4ZM1013.45 77C1018.05 77 1022.25 78.8 1026.05 82.4C1030.05 86 1032.05 90.3 1032.05 95.3C1032.05 100.1 1030.05 104.3 1026.05 107.9C1022.05 111.3 1017.55 113 1012.55 113C1008.35 113 1004.35 111.3 1000.55 107.9C996.951 104.3 995.151 99.9 995.151 94.7C995.151 89.9 996.951 85.8 1000.55 82.4C1004.35 78.8 1008.65 77 1013.45 77Z" fill="#FAFAFA"/>
<path d="M1066.73 271.1C1066.33 266.7 1066.03 260.1 1065.83 251.3C1065.63 242.3 1065.43 232 1065.23 220.4C1065.03 208.6 1064.93 195.8 1064.93 182C1064.93 168.2 1064.93 154.1 1064.93 139.7C1064.93 122.7 1065.03 108.8 1065.23 98C1065.43 87.2 1066.03 78.7 1067.03 72.5C1068.03 66.3 1069.63 62.1 1071.83 59.9C1074.03 57.5 1077.23 56.3 1081.43 56.3C1085.03 56.3 1087.63 57.5 1089.23 59.9C1090.83 62.1 1092.03 67.1 1092.83 74.9C1093.23 79.7 1093.53 86.2 1093.73 94.4C1094.13 102.4 1094.33 111.2 1094.33 120.8C1094.53 130.4 1094.63 140.4 1094.63 150.8C1094.83 161.2 1094.93 171.1 1094.93 180.5V204.8L1161.53 144.5C1163.73 142.5 1166.33 140.6 1169.33 138.8C1172.53 136.8 1175.83 135.8 1179.23 135.8C1183.23 135.8 1186.23 137.4 1188.23 140.6C1190.23 143.6 1191.23 147.1 1191.23 151.1C1191.23 153.3 1190.83 155.4 1190.03 157.4C1189.43 159.2 1188.03 160.9 1185.83 162.5L1145.33 195.8L1194.53 267.2C1196.33 269.6 1197.23 272.3 1197.23 275.3C1197.23 279.7 1195.83 283 1193.03 285.2C1190.23 287.4 1186.63 288.5 1182.23 288.5C1179.03 288.5 1176.23 287.9 1173.83 286.7C1171.43 285.5 1169.13 283.2 1166.93 279.8L1121.93 214.7L1094.63 237.2C1094.43 244.6 1094.23 251.2 1094.03 257C1093.83 262.8 1093.53 267.4 1093.13 270.8C1092.33 277.8 1091.03 282.4 1089.23 284.6C1087.43 286.8 1084.23 287.9 1079.63 287.9C1075.03 287.9 1071.83 286.8 1070.03 284.6C1068.43 282.4 1067.33 277.9 1066.73 271.1Z" fill="#FAFAFA"/>
<path d="M1293.32 231.8C1286.32 231.8 1278.92 231.3 1271.12 230.3C1263.52 229.1 1255.22 226.7 1246.22 223.1C1248.02 235.3 1253.02 244.5 1261.22 250.7C1269.62 256.9 1281.62 260 1297.22 260C1302.82 260 1307.82 259.7 1312.22 259.1C1316.82 258.3 1320.82 257.5 1324.22 256.7C1327.62 255.7 1330.62 254.9 1333.22 254.3C1335.82 253.5 1338.22 253.1 1340.42 253.1C1343.22 253.1 1345.92 254 1348.52 255.8C1351.12 257.4 1352.42 260.2 1352.42 264.2C1352.42 269.2 1350.32 273.3 1346.12 276.5C1342.12 279.7 1337.12 282.3 1331.12 284.3C1325.32 286.1 1319.12 287.3 1312.52 287.9C1305.92 288.7 1300.12 289.1 1295.12 289.1C1283.32 289.1 1272.42 287.5 1262.42 284.3C1252.62 281.1 1244.12 276.3 1236.92 269.9C1229.72 263.3 1224.12 255.2 1220.12 245.6C1216.12 236 1214.12 224.8 1214.12 212C1214.12 199.6 1216.02 188.6 1219.82 179C1223.82 169.4 1229.22 161.3 1236.02 154.7C1242.82 148.1 1250.82 143.1 1260.02 139.7C1269.42 136.3 1279.52 134.6 1290.32 134.6C1298.72 134.6 1306.82 135.7 1314.62 137.9C1322.62 140.1 1329.62 143.4 1335.62 147.8C1341.82 152.2 1346.72 157.8 1350.32 164.6C1354.12 171.2 1356.02 179 1356.02 188C1356.02 196 1354.52 202.8 1351.52 208.4C1348.52 214 1344.22 218.5 1338.62 221.9C1333.22 225.3 1326.62 227.8 1318.82 229.4C1311.22 231 1302.72 231.8 1293.32 231.8ZM1291.22 162.2C1285.82 162.2 1280.62 162.9 1275.62 164.3C1270.62 165.5 1266.02 167.6 1261.82 170.6C1257.82 173.4 1254.42 177.2 1251.62 182C1248.82 186.6 1246.92 192.4 1245.92 199.4C1253.52 202.8 1260.92 205.2 1268.12 206.6C1275.32 207.8 1282.92 208.4 1290.92 208.4C1302.72 208.4 1311.42 207 1317.02 204.2C1322.82 201.2 1325.72 195.9 1325.72 188.3C1325.72 181.3 1323.02 175.2 1317.62 170C1312.42 164.8 1303.62 162.2 1291.22 162.2Z" fill="#FAFAFA"/>
<path d="M1455.07 159.2C1447.67 159.2 1440.97 160.4 1434.97 162.8C1429.17 165.2 1422.57 168.8 1415.17 173.6C1415.17 177.8 1415.17 184 1415.17 192.2C1415.17 200.2 1415.07 209 1414.87 218.6C1414.67 228 1414.47 237.3 1414.27 246.5C1414.07 255.7 1413.67 263.4 1413.07 269.6C1412.67 273.6 1412.17 276.8 1411.57 279.2C1411.17 281.4 1410.47 283.1 1409.47 284.3C1408.67 285.5 1407.47 286.3 1405.87 286.7C1404.47 286.9 1402.57 287 1400.17 287C1397.77 287 1395.77 286.9 1394.17 286.7C1392.77 286.3 1391.57 285.6 1390.57 284.6C1389.57 283.4 1388.77 281.7 1388.17 279.5C1387.57 277.3 1387.07 274.3 1386.67 270.5C1386.27 266.9 1385.87 262.1 1385.47 256.1C1385.27 250.1 1385.07 243.6 1384.87 236.6C1384.67 229.4 1384.47 222.2 1384.27 215C1384.27 207.6 1384.27 200.8 1384.27 194.6C1384.27 184.4 1384.37 176.1 1384.57 169.7C1384.97 163.3 1385.57 157.6 1386.37 152.6C1387.57 144.2 1389.17 138.9 1391.17 136.7C1393.17 134.5 1395.87 133.4 1399.27 133.4C1404.27 133.4 1407.97 134.8 1410.37 137.6C1412.97 140.4 1414.57 145 1415.17 151.4C1422.57 145 1430.47 139.9 1438.87 136.1C1447.47 132.3 1456.27 130.4 1465.27 130.4C1473.87 130.4 1481.67 132.4 1488.67 136.4C1495.87 140.4 1501.77 146.9 1506.37 155.9C1509.17 161.3 1511.27 167.3 1512.67 173.9C1514.07 180.3 1515.07 187.1 1515.67 194.3C1515.87 197.5 1516.07 200.7 1516.27 203.9C1516.47 206.9 1516.57 210.2 1516.57 213.8C1516.77 217.2 1516.87 221.1 1516.87 225.5C1516.87 229.9 1516.87 235.1 1516.87 241.1C1516.87 247.5 1516.77 253.5 1516.57 259.1C1516.37 264.7 1515.77 269.6 1514.77 273.8C1513.97 277.8 1512.47 281 1510.27 283.4C1508.07 285.6 1505.07 286.7 1501.27 286.7C1492.07 286.7 1487.27 282.3 1486.87 273.5C1486.87 272.9 1486.87 270.4 1486.87 266C1486.87 261.4 1486.77 256.1 1486.57 250.1C1486.57 244.1 1486.47 238 1486.27 231.8C1486.27 225.6 1486.17 220.5 1485.97 216.5C1485.77 213.3 1485.47 209.9 1485.07 206.3C1484.87 202.5 1484.47 198.7 1483.87 194.9C1483.47 191.1 1482.87 187.5 1482.07 184.1C1481.27 180.5 1480.27 177.3 1479.07 174.5C1476.27 167.9 1472.77 163.7 1468.57 161.9C1464.37 160.1 1459.87 159.2 1455.07 159.2Z" fill="#FAFAFA"/>
<path d="M1638.56 74.6C1645.16 74.6 1651.76 75.2 1658.36 76.4C1665.16 77.4 1671.26 79.1 1676.66 81.5C1682.06 83.7 1686.46 86.5 1689.86 89.9C1693.46 93.1 1695.26 96.9 1695.26 101.3C1695.26 105.9 1694.06 109.4 1691.66 111.8C1689.26 114.2 1686.26 115.4 1682.66 115.4C1679.26 115.4 1676.26 114.9 1673.66 113.9C1671.06 112.7 1668.06 111.4 1664.66 110C1661.46 108.6 1657.56 107.4 1652.96 106.4C1648.36 105.2 1642.26 104.6 1634.66 104.6C1627.06 104.6 1619.76 106.6 1612.76 110.6C1605.96 114.4 1599.96 119.8 1594.76 126.8C1589.76 133.6 1585.76 141.7 1582.76 151.1C1579.76 160.5 1578.26 170.7 1578.26 181.7C1578.26 195.3 1579.96 207 1583.36 216.8C1586.96 226.6 1591.56 234.7 1597.16 241.1C1602.76 247.3 1609.06 252 1616.06 255.2C1623.26 258.2 1630.46 259.7 1637.66 259.7C1646.26 259.7 1653.46 258.8 1659.26 257C1665.06 255.2 1669.96 253.2 1673.96 251C1678.16 248.8 1681.76 246.8 1684.76 245C1687.76 243.2 1690.66 242.3 1693.46 242.3C1696.86 242.3 1699.56 243.3 1701.56 245.3C1703.56 247.1 1704.56 250.4 1704.56 255.2C1704.56 259.2 1702.96 263.3 1699.76 267.5C1696.76 271.5 1692.26 275.2 1686.26 278.6C1680.46 281.8 1673.46 284.5 1665.26 286.7C1657.06 288.7 1647.86 289.7 1637.66 289.7C1626.46 289.7 1615.26 287.5 1604.06 283.1C1593.06 278.7 1583.16 272.2 1574.36 263.6C1565.76 254.8 1558.76 243.9 1553.36 230.9C1547.96 217.7 1545.26 202.4 1545.26 185C1545.26 167.6 1547.66 152.1 1552.46 138.5C1557.46 124.9 1564.16 113.4 1572.56 104C1581.16 94.4 1591.06 87.1 1602.26 82.1C1613.66 77.1 1625.76 74.6 1638.56 74.6Z" fill="#FAFAFA"/>
<path d="M1800.45 134.9C1811.85 134.9 1822.05 136.7 1831.05 140.3C1840.05 143.7 1847.65 148.6 1853.85 155C1860.25 161.4 1865.15 169.2 1868.55 178.4C1871.95 187.6 1873.65 197.9 1873.65 209.3C1873.65 221.9 1871.65 233.2 1867.65 243.2C1863.85 253.2 1858.45 261.7 1851.45 268.7C1844.65 275.7 1836.45 281.1 1826.85 284.9C1817.45 288.7 1807.15 290.6 1795.95 290.6C1783.75 290.6 1772.95 288.5 1763.55 284.3C1754.35 280.1 1746.55 274.4 1740.15 267.2C1733.95 260 1729.25 251.7 1726.05 242.3C1722.85 232.9 1721.25 223 1721.25 212.6C1721.25 201.2 1723.05 190.8 1726.65 181.4C1730.45 171.8 1735.75 163.6 1742.55 156.8C1749.55 149.8 1757.95 144.4 1767.75 140.6C1777.55 136.8 1788.45 134.9 1800.45 134.9ZM1797.15 263C1805.35 263 1812.35 261.6 1818.15 258.8C1823.95 255.8 1828.65 251.9 1832.25 247.1C1836.05 242.3 1838.75 236.9 1840.35 230.9C1842.15 224.7 1843.05 218.3 1843.05 211.7C1843.05 204.9 1842.15 198.6 1840.35 192.8C1838.75 186.8 1836.15 181.6 1832.55 177.2C1829.15 172.8 1824.65 169.4 1819.05 167C1813.65 164.4 1807.15 163.1 1799.55 163.1C1791.75 163.1 1784.95 164.4 1779.15 167C1773.35 169.6 1768.45 173.2 1764.45 177.8C1760.65 182.2 1757.75 187.5 1755.75 193.7C1753.75 199.9 1752.75 206.6 1752.75 213.8C1752.75 228.4 1756.45 240.3 1763.85 249.5C1771.45 258.5 1782.55 263 1797.15 263Z" fill="#FAFAFA"/>
<path d="M2028.52 286.4C2024.52 286.4 2021.12 284.8 2018.32 281.6C2015.72 278.4 2013.92 274.7 2012.92 270.5C2010.52 272.7 2007.72 274.9 2004.52 277.1C2001.52 279.3 1998.02 281.4 1994.02 283.4C1990.02 285.2 1985.62 286.7 1980.82 287.9C1976.02 289.1 1970.82 289.7 1965.22 289.7C1958.42 289.7 1950.82 288.6 1942.42 286.4C1934.22 284 1926.42 280 1919.02 274.4C1911.82 268.6 1905.72 260.8 1900.72 251C1895.92 241.2 1893.52 228.9 1893.52 214.1C1893.52 201.5 1895.42 190.3 1899.22 180.5C1903.02 170.7 1908.32 162.5 1915.12 155.9C1922.12 149.1 1930.32 144 1939.72 140.6C1949.32 137 1959.72 135.2 1970.92 135.2C1980.52 135.2 1988.12 136.3 1993.72 138.5C1999.32 140.7 2003.72 143.3 2006.92 146.3C2006.92 140.9 2006.92 134.8 2006.92 128C2006.92 121 2006.92 114.3 2006.92 107.9C2007.12 101.3 2007.22 95.3 2007.22 89.9C2007.42 84.5 2007.62 80.4 2007.82 77.6C2008.22 70.8 2009.42 66.2 2011.42 63.8C2013.42 61.2 2016.92 59.9 2021.92 59.9C2027.12 59.9 2030.62 61.2 2032.42 63.8C2034.42 66.2 2035.62 70.5 2036.02 76.7C2036.22 79.3 2036.32 82.8 2036.32 87.2C2036.52 91.6 2036.62 96.4 2036.62 101.6C2036.62 106.8 2036.62 112.1 2036.62 117.5C2036.82 122.7 2036.92 127.5 2036.92 131.9C2036.92 136.1 2036.92 139.6 2036.92 142.4C2036.92 145.2 2036.92 146.6 2036.92 146.6C2036.92 167 2036.72 185.8 2036.32 203C2036.12 220.2 2036.02 233.9 2036.02 244.1C2036.42 246.3 2037.22 248.4 2038.42 250.4C2039.82 252.4 2041.22 254.4 2042.62 256.4C2044.22 258.4 2045.62 260.5 2046.82 262.7C2048.02 264.9 2048.62 267.2 2048.62 269.6C2048.62 272.4 2047.92 274.9 2046.52 277.1C2045.12 279.1 2043.32 280.8 2041.12 282.2C2039.12 283.6 2036.92 284.7 2034.52 285.5C2032.32 286.1 2030.32 286.4 2028.52 286.4ZM1970.62 260C1983.02 260 1992.52 256.3 1999.12 248.9C2005.72 241.5 2009.02 229.3 2009.02 212.3C2009.02 179.7 1996.12 163.4 1970.32 163.4C1964.32 163.4 1958.52 164.3 1952.92 166.1C1947.32 167.9 1942.32 170.7 1937.92 174.5C1933.72 178.3 1930.22 183.1 1927.42 188.9C1924.82 194.7 1923.52 201.6 1923.52 209.6C1923.52 216.2 1924.42 222.5 1926.22 228.5C1928.22 234.5 1931.12 239.9 1934.92 244.7C1938.92 249.3 1943.82 253 1949.62 255.8C1955.62 258.6 1962.62 260 1970.62 260Z" fill="#FAFAFA"/>
<path d="M2143.52 231.8C2136.52 231.8 2129.12 231.3 2121.32 230.3C2113.72 229.1 2105.42 226.7 2096.42 223.1C2098.22 235.3 2103.22 244.5 2111.42 250.7C2119.82 256.9 2131.82 260 2147.42 260C2153.02 260 2158.02 259.7 2162.42 259.1C2167.02 258.3 2171.02 257.5 2174.42 256.7C2177.82 255.7 2180.82 254.9 2183.42 254.3C2186.02 253.5 2188.42 253.1 2190.62 253.1C2193.42 253.1 2196.12 254 2198.72 255.8C2201.32 257.4 2202.62 260.2 2202.62 264.2C2202.62 269.2 2200.52 273.3 2196.32 276.5C2192.32 279.7 2187.32 282.3 2181.32 284.3C2175.52 286.1 2169.32 287.3 2162.72 287.9C2156.12 288.7 2150.32 289.1 2145.32 289.1C2133.52 289.1 2122.62 287.5 2112.62 284.3C2102.82 281.1 2094.32 276.3 2087.12 269.9C2079.92 263.3 2074.32 255.2 2070.32 245.6C2066.32 236 2064.32 224.8 2064.32 212C2064.32 199.6 2066.22 188.6 2070.02 179C2074.02 169.4 2079.42 161.3 2086.22 154.7C2093.02 148.1 2101.02 143.1 2110.22 139.7C2119.62 136.3 2129.72 134.6 2140.52 134.6C2148.92 134.6 2157.02 135.7 2164.82 137.9C2172.82 140.1 2179.82 143.4 2185.82 147.8C2192.02 152.2 2196.92 157.8 2200.52 164.6C2204.32 171.2 2206.22 179 2206.22 188C2206.22 196 2204.72 202.8 2201.72 208.4C2198.72 214 2194.42 218.5 2188.82 221.9C2183.42 225.3 2176.82 227.8 2169.02 229.4C2161.42 231 2152.92 231.8 2143.52 231.8ZM2141.42 162.2C2136.02 162.2 2130.82 162.9 2125.82 164.3C2120.82 165.5 2116.22 167.6 2112.02 170.6C2108.02 173.4 2104.62 177.2 2101.82 182C2099.02 186.6 2097.12 192.4 2096.12 199.4C2103.72 202.8 2111.12 205.2 2118.32 206.6C2125.52 207.8 2133.12 208.4 2141.12 208.4C2152.92 208.4 2161.62 207 2167.22 204.2C2173.02 201.2 2175.92 195.9 2175.92 188.3C2175.92 181.3 2173.22 175.2 2167.82 170C2162.62 164.8 2153.82 162.2 2141.42 162.2Z" fill="#FAFAFA"/>
<path d="M2236.27 268.7C2235.47 261.7 2234.97 253.2 2234.77 243.2C2234.57 233.2 2234.47 221.1 2234.47 206.9C2234.47 192.9 2234.47 181.6 2234.47 173C2234.67 164.4 2235.27 156.8 2236.27 150.2C2237.27 142 2238.77 136.7 2240.77 134.3C2242.97 131.9 2245.77 130.7 2249.17 130.7C2251.57 130.7 2253.67 130.9 2255.47 131.3C2257.47 131.7 2259.17 132.6 2260.57 134C2262.17 135.2 2263.37 137 2264.17 139.4C2264.97 141.8 2265.37 145.1 2265.37 149.3C2265.37 150.1 2265.47 150.9 2265.67 151.7C2265.67 152.5 2265.67 153.4 2265.67 154.4C2265.87 155.2 2265.97 156.2 2265.97 157.4C2271.37 150.6 2277.47 144.8 2284.27 140C2291.27 135.2 2299.17 132.8 2307.97 132.8C2319.77 132.8 2325.67 137.7 2325.67 147.5C2325.67 151.1 2324.87 154.1 2323.27 156.5C2321.87 158.9 2319.77 160.9 2316.97 162.5C2314.37 163.9 2311.27 165 2307.67 165.8C2304.27 166.6 2300.47 167.4 2296.27 168.2C2289.87 169.4 2283.87 171.7 2278.27 175.1C2272.67 178.3 2268.87 182.4 2266.87 187.4C2266.87 191.2 2266.87 194 2266.87 195.8C2267.07 197.6 2267.17 199.1 2267.17 200.3C2267.37 201.5 2267.47 202.8 2267.47 204.2C2267.47 205.6 2267.47 207.8 2267.47 210.8C2267.47 221 2267.27 230.6 2266.87 239.6C2266.47 248.4 2266.07 258 2265.67 268.4C2265.47 273.2 2264.87 276.9 2263.87 279.5C2263.07 282.1 2261.97 284.1 2260.57 285.5C2259.37 286.9 2257.97 287.7 2256.37 287.9C2254.77 288.3 2253.17 288.5 2251.57 288.5C2245.97 288.5 2242.17 287.3 2240.17 284.9C2238.37 282.3 2237.07 276.9 2236.27 268.7Z" fill="#FAFAFA"/>
<path d="M2405.15 234.8C2396.15 244.2 2388.45 252.3 2382.05 259.1C2375.85 265.7 2370.55 271.2 2366.15 275.6C2361.75 279.8 2358.05 282.9 2355.05 284.9C2352.25 286.9 2349.65 287.9 2347.25 287.9C2344.45 287.9 2341.65 286.7 2338.85 284.3C2336.25 281.9 2334.95 279.3 2334.95 276.5C2334.95 274.1 2336.65 270.5 2340.05 265.7C2343.45 260.7 2347.65 255.2 2352.65 249.2C2357.65 243.2 2363.05 237 2368.85 230.6C2374.65 224 2379.95 217.8 2384.75 212C2378.35 204.6 2372.25 197.4 2366.45 190.4C2360.85 183.4 2355.95 176.9 2351.75 170.9C2347.55 164.9 2344.15 159.6 2341.55 155C2339.15 150.4 2337.95 146.8 2337.95 144.2C2337.95 141.6 2339.25 139.4 2341.85 137.6C2344.45 135.6 2346.85 134.6 2349.05 134.6C2350.85 134.6 2353.95 136.6 2358.35 140.6C2362.75 144.4 2367.65 149.1 2373.05 154.7C2378.65 160.1 2384.25 165.9 2389.85 172.1C2395.65 178.3 2400.85 183.8 2405.45 188.6C2409.85 183.8 2414.75 178.4 2420.15 172.4C2425.75 166.2 2431.25 160.4 2436.65 155C2442.05 149.6 2447.05 145 2451.65 141.2C2456.25 137.4 2459.85 135.5 2462.45 135.5C2464.65 135.5 2466.85 136.3 2469.05 137.9C2471.25 139.5 2472.35 141.6 2472.35 144.2C2472.35 146.8 2471.05 150.4 2468.45 155C2466.05 159.6 2462.75 164.9 2458.55 170.9C2454.35 176.9 2449.35 183.4 2443.55 190.4C2437.95 197.4 2431.95 204.6 2425.55 212C2430.55 217.6 2435.95 223.7 2441.75 230.3C2447.55 236.7 2452.95 243 2457.95 249.2C2462.95 255.2 2467.05 260.7 2470.25 265.7C2473.65 270.5 2475.35 274.1 2475.35 276.5C2475.35 279.3 2473.95 281.9 2471.15 284.3C2468.55 286.7 2465.85 287.9 2463.05 287.9C2460.45 287.9 2456.95 286.3 2452.55 283.1C2448.35 279.7 2443.55 275.5 2438.15 270.5C2432.95 265.3 2427.45 259.6 2421.65 253.4C2416.05 247 2410.55 240.8 2405.15 234.8Z" fill="#FAFAFA"/>
<path d="M859.36 374H2380.36V407H859.36V374Z" fill="#FFC806"/>
</svg>
